<svg width="20" height="17" viewBox="0 0 20 17" fill="none" xmlns="http://www.w3.org/2000/svg">
<path fill-rule="evenodd" clip-rule="evenodd" d="M6.08838 8.15123C6.08838 5.96366 7.83897 4.19116 9.99938 4.19116C12.1599 4.19116 13.9114 5.96377 13.9114 8.15123C13.9114 10.3379 12.1597 12.1103 9.99938 12.1103C7.83916 12.1103 6.08838 10.338 6.08838 8.15123ZM12.4114 8.1512C12.4114 6.80241 11.3315 5.70953 9.99938 5.70953C8.66747 5.70953 7.58838 6.80214 7.58838 8.1512C7.58838 9.49937 8.66759 10.5919 9.99938 10.5919C11.3314 10.5919 12.4114 9.4991 12.4114 8.1512Z" fill="#200E32"/>
<path fill-rule="evenodd" clip-rule="evenodd" d="M10.002 0L10.2882 0.0049098C14.2192 0.138022 17.7497 2.95565 19.7968 7.52498L19.9361 7.8443C20.0202 8.03723 20.0213 8.25689 19.9391 8.45065C17.8707 13.3236 14.1389 16.3019 9.998 16.3019L9.71179 16.297C5.77544 16.1637 2.24638 13.3402 0.204239 8.77937L0.0609149 8.45065C-0.020305 8.2593 -0.020305 8.04258 0.0609149 7.85122C2.12926 2.97823 5.86108 0 10.002 0ZM10.2479 1.52282L10.009 1.51758C6.69143 1.51844 3.61112 3.84438 1.72652 7.81086L1.56995 8.15005L1.73909 8.51745C3.52632 12.2615 6.38266 14.5413 9.48056 14.7649L9.74688 14.779L10.004 14.7825L10.2588 14.7786C13.5569 14.6567 16.5987 12.2269 18.4197 8.17453L18.429 8.15005C16.6525 4.18304 13.7121 1.76763 10.5149 1.53697L10.2479 1.52282Z" fill="#200E32"/>
</svg>
