<svg width="8" height="10" viewBox="0 0 8 10" fill="none" xmlns="http://www.w3.org/2000/svg">
<path d="M7.86338 0.053125C7.90537 0.0816484 7.93979 0.120231 7.96362 0.165466C7.98745 0.210702 7.99994 0.261199 8 0.3125V5C7.99999 5.06241 7.98157 5.12338 7.94713 5.17507C7.9127 5.22675 7.86381 5.26678 7.80677 5.29L7.69231 5L7.80677 5.29L7.80492 5.29063L7.80123 5.2925L7.78708 5.29813C7.70617 5.33078 7.62472 5.36204 7.54277 5.39187C7.38031 5.45125 7.15446 5.53125 6.89846 5.61063C6.39631 5.76813 5.74215 5.9375 5.23077 5.9375C4.70954 5.9375 4.27815 5.7625 3.90277 5.60938L3.88554 5.60313C3.49538 5.44375 3.16308 5.3125 2.76923 5.3125C2.33846 5.3125 1.76123 5.45625 1.26954 5.61063C1.04939 5.68031 0.831247 5.75638 0.615385 5.83875V9.6875C0.615385 9.77038 0.582967 9.84987 0.525264 9.90847C0.46756 9.96708 0.389297 10 0.307692 10C0.226087 10 0.147825 9.96708 0.0901211 9.90847C0.0324176 9.84987 0 9.77038 0 9.6875V0.3125C0 0.22962 0.0324176 0.150134 0.0901211 0.0915291C0.147825 0.032924 0.226087 0 0.307692 0C0.389297 0 0.46756 0.032924 0.525264 0.0915291C0.582967 0.150134 0.615385 0.22962 0.615385 0.3125V0.48875C0.754462 0.439375 0.920615 0.3825 1.10154 0.32625C1.60369 0.17 2.25846 0 2.76923 0C3.28615 0 3.70708 0.173125 4.07446 0.324375L4.10092 0.335625C4.48369 0.4925 4.81723 0.625 5.23077 0.625C5.66154 0.625 6.23877 0.48125 6.73046 0.326875C7.01065 0.238008 7.28756 0.138775 7.56062 0.029375L7.57231 0.025L7.57477 0.02375H7.57539L7.86338 0.053125ZM7.38462 0.763125C7.24923 0.811875 7.08923 0.8675 6.91323 0.9225C6.41477 1.08 5.76123 1.24937 5.23077 1.24937C4.68554 1.24937 4.25108 1.07063 3.87508 0.915625L3.87015 0.91375C3.48431 0.75625 3.16246 0.625 2.76923 0.625C2.35754 0.625 1.78092 0.768125 1.28308 0.92375C1.05853 0.994114 0.835883 1.0706 0.615385 1.15313V5.17375C0.750769 5.125 0.910769 5.06938 1.08677 5.01437C1.58523 4.85625 2.23877 4.6875 2.76923 4.6875C3.29046 4.6875 3.72185 4.8625 4.09723 5.01562L4.11446 5.02187C4.50462 5.18125 4.83692 5.3125 5.23077 5.3125C5.64185 5.3125 6.21908 5.16938 6.71692 5.01375C6.94147 4.94338 7.16411 4.86689 7.38462 4.78438V0.76375V0.763125Z" fill="#FD1010"/>
</svg>
