<svg width="11" height="13" viewBox="0 0 11 13" fill="none" xmlns="http://www.w3.org/2000/svg">
<path d="M5.4 7.05C6.31127 7.05 7.05 6.31127 7.05 5.4C7.05 4.48873 6.31127 3.75 5.4 3.75C4.48873 3.75 3.75 4.48873 3.75 5.4C3.75 6.31127 4.48873 7.05 5.4 7.05Z" stroke="black" stroke-opacity="0.4" stroke-linecap="round" stroke-linejoin="round"/>
<path d="M5.4 1C4.23305 1 3.11389 1.46357 2.28873 2.28873C1.46357 3.11389 1 4.23305 1 5.4C1 6.4406 1.2211 7.1215 1.825 7.875L5.4 12L8.975 7.875C9.5789 7.1215 9.8 6.4406 9.8 5.4C9.8 4.23305 9.33643 3.11389 8.51127 2.28873C7.68611 1.46357 6.56695 1 5.4 1V1Z" stroke="black" stroke-opacity="0.4" stroke-linecap="round" stroke-linejoin="round"/>
</svg>
