<svg width="21" height="19" viewBox="0 0 21 19" fill="none" xmlns="http://www.w3.org/2000/svg">
<path d="M20.002 9L15.002 5V8L6.00195 8V10L15.002 10V13L20.002 9Z" fill="white"/>
<path d="M9.00123 18.0019C10.1837 18.0052 11.3551 17.7738 12.4475 17.3212C13.5399 16.8685 14.5316 16.2036 15.3652 15.3649L13.9512 13.9509C12.6292 15.2729 10.8712 16.0019 9.00123 16.0019C7.13123 16.0019 5.37323 15.2729 4.05123 13.9509C2.72923 12.6289 2.00023 10.8709 2.00023 9.00092C2.00023 7.13092 2.72923 5.37292 4.05123 4.05092C5.37323 2.72892 7.13123 1.99992 9.00123 1.99992C10.8712 1.99992 12.6292 2.72892 13.9512 4.05092L15.3652 2.63692C13.6662 0.936918 11.4062 -8.01086e-05 9.00123 -8.01086e-05C6.59623 -8.01086e-05 4.33624 0.936918 2.63723 2.63692C0.937235 4.33592 0.00023365 6.59592 0.00023365 9.00092C0.00023365 11.4059 0.937235 13.6659 2.63723 15.3649C3.47084 16.2036 4.46257 16.8685 5.55498 17.3212C6.64739 17.7738 7.81876 18.0052 9.00123 18.0019Z" fill="white"/>
</svg>
