<svg width="31" height="20" viewBox="0 0 31 20" fill="none" xmlns="http://www.w3.org/2000/svg">
<path d="M11.3086 2.04883H19.6905V17.1097H11.3086V2.04883Z" fill="#FF5F00"/>
<path d="M11.8412 9.57939C11.8412 6.51935 13.2781 3.80514 15.4866 2.04887C13.8636 0.771645 11.8147 0 9.57951 0C4.28405 0 0 4.28405 0 9.57939C0 14.8746 4.28405 19.1588 9.57939 19.1588C11.8146 19.1588 13.8634 18.3871 15.4866 17.1098C13.2781 15.3802 11.8412 12.6394 11.8412 9.57939Z" fill="#EB001B"/>
<path d="M31.0003 9.57939C31.0003 14.8746 26.7162 19.1588 21.4209 19.1588C19.1857 19.1588 17.1368 18.3871 15.5137 17.1098C17.7488 15.3536 19.1592 12.6394 19.1592 9.57939C19.1592 6.51935 17.7222 3.80514 15.5137 2.04887C17.1367 0.771645 19.1857 0 21.4209 0C26.7162 0 31.0004 4.31072 31.0004 9.57939H31.0003Z" fill="#F79E1B"/>
</svg>
