<svg width="57" height="57" viewBox="0 0 57 57" fill="none" xmlns="http://www.w3.org/2000/svg">
<path d="M28.5 57C44.2401 57 57 44.2401 57 28.5C57 12.7599 44.2401 0 28.5 0C12.7599 0 0 12.7599 0 28.5C0 44.2401 12.7599 57 28.5 57Z" fill="white"/>
<path d="M44.5649 7.25421C40.1603 3.93784 34.7194 1.96875 28.7085 1.96875C14.0958 1.96875 2.28125 13.8351 2.28125 28.396C2.28125 34.0442 4.09489 39.5369 7.46307 44.0969C25.2885 38.8633 39.2276 25.0278 44.6167 7.25421" fill="#EB1933"/>
<path d="M50.7819 14.5088C53.0101 21.9707 50.7301 29.7952 44.0456 34.9252C36.0656 40.7807 24.3547 40.8325 8.29102 45.807C17.4628 57.1552 34.0965 58.917 45.4447 49.7452C56.1192 41.1434 58.3992 25.8052 50.7819 14.457" fill="#2151A1"/>
</svg>
