<svg width="7" height="7" viewBox="0 0 7 7" fill="none" xmlns="http://www.w3.org/2000/svg">
<path d="M7 3.5C7 4.42826 6.63125 5.3185 5.97487 5.97487C5.3185 6.63125 4.42826 7 3.5 7C2.57174 7 1.6815 6.63125 1.02513 5.97487C0.368749 5.3185 0 4.42826 0 3.5C0 2.57174 0.368749 1.6815 1.02513 1.02513C1.6815 0.368749 2.57174 0 3.5 0C4.42826 0 5.3185 0.368749 5.97487 1.02513C6.63125 1.6815 7 2.57174 7 3.5ZM1.75 3.5C1.75 3.55802 1.77305 3.61366 1.81407 3.65468C1.85509 3.6957 1.91073 3.71875 1.96875 3.71875H3.28125V5.03125C3.28125 5.08927 3.3043 5.14491 3.34532 5.18593C3.38634 5.22695 3.44198 5.25 3.5 5.25C3.55802 5.25 3.61366 5.22695 3.65468 5.18593C3.6957 5.14491 3.71875 5.08927 3.71875 5.03125V3.71875H5.03125C5.08927 3.71875 5.14491 3.6957 5.18593 3.65468C5.22695 3.61366 5.25 3.55802 5.25 3.5C5.25 3.44198 5.22695 3.38634 5.18593 3.34532C5.14491 3.3043 5.08927 3.28125 5.03125 3.28125H3.71875V1.96875C3.71875 1.91073 3.6957 1.85509 3.65468 1.81407C3.61366 1.77305 3.55802 1.75 3.5 1.75C3.44198 1.75 3.38634 1.77305 3.34532 1.81407C3.3043 1.85509 3.28125 1.91073 3.28125 1.96875V3.28125H1.96875C1.91073 3.28125 1.85509 3.3043 1.81407 3.34532C1.77305 3.38634 1.75 3.44198 1.75 3.5Z" fill="#0959FE"/>
</svg>
