<svg width="41" height="26" viewBox="0 0 41 26" fill="none" xmlns="http://www.w3.org/2000/svg">
<path d="M14.957 2.71094H26.0428V22.6302H14.957V2.71094Z" fill="#FF5F00"/>
<path d="M15.661 12.6695C15.661 8.62235 17.5613 5.03259 20.4823 2.70979C18.3356 1.02056 15.6258 0 12.6697 0C5.66599 0 0 5.66599 0 12.6695C0 19.6728 5.66599 25.339 12.6695 25.339C15.6257 25.339 18.3355 24.3184 20.4823 22.629C17.5613 20.3415 15.661 16.7166 15.661 12.6695Z" fill="#EB001B"/>
<path d="M40.9998 12.6695C40.9998 19.6728 35.3338 25.339 28.3303 25.339C25.3741 25.339 22.6643 24.3184 20.5176 22.629C23.4738 20.3064 25.339 16.7166 25.339 12.6695C25.339 8.62235 23.4385 5.03259 20.5176 2.70979C22.6642 1.02056 25.3741 0 28.3303 0C35.3338 0 41 5.70126 41 12.6695H40.9998Z" fill="#F79E1B"/>
</svg>
