<svg width="498" height="55" viewBox="0 0 498 55" fill="none" xmlns="http://www.w3.org/2000/svg">
<path d="M70.992 27.096C70.992 25.2613 71.2907 23.832 71.888 22.808C72.4853 21.7733 73.5307 21.256 75.024 21.256C76.5067 21.256 77.5467 21.7733 78.144 22.808C78.7413 23.832 79.04 25.2613 79.04 27.096C79.04 28.9627 78.7413 30.4133 78.144 31.448C77.5467 32.4827 76.5067 33 75.024 33C73.5307 33 72.4853 32.4827 71.888 31.448C71.2907 30.4133 70.992 28.9627 70.992 27.096ZM77.6 27.096C77.6 26.168 77.536 25.384 77.408 24.744C77.2907 24.0933 77.04 23.5707 76.656 23.176C76.2827 22.7813 75.7387 22.584 75.024 22.584C74.2987 22.584 73.744 22.7813 73.36 23.176C72.9867 23.5707 72.736 24.0933 72.608 24.744C72.4907 25.384 72.432 26.168 72.432 27.096C72.432 28.056 72.4907 28.8613 72.608 29.512C72.736 30.1627 72.9867 30.6853 73.36 31.08C73.744 31.4747 74.2987 31.672 75.024 31.672C75.7387 31.672 76.2827 31.4747 76.656 31.08C77.04 30.6853 77.2907 30.1627 77.408 29.512C77.536 28.8613 77.6 28.056 77.6 27.096ZM88.1109 22.568L83.6629 33H82.1909L86.7029 22.712H80.5269V21.464H88.1109V22.568ZM96.7972 22.568L92.3492 33H90.8772L95.3892 22.712H89.2132V21.464H96.7972V22.568ZM98.3316 24.344C98.4063 23.3627 98.785 22.5947 99.4676 22.04C100.15 21.4853 101.036 21.208 102.124 21.208C102.849 21.208 103.473 21.3413 103.996 21.608C104.529 21.864 104.929 22.216 105.196 22.664C105.473 23.112 105.612 23.6187 105.612 24.184C105.612 24.8453 105.42 25.416 105.036 25.896C104.662 26.376 104.172 26.6853 103.564 26.824V26.904C104.257 27.0747 104.806 27.4107 105.212 27.912C105.617 28.4133 105.82 29.0693 105.82 29.88C105.82 30.488 105.681 31.0373 105.404 31.528C105.126 32.008 104.71 32.3867 104.156 32.664C103.601 32.9413 102.934 33.08 102.156 33.08C101.025 33.08 100.097 32.7867 99.3716 32.2C98.6463 31.6027 98.241 30.76 98.1556 29.672H99.5636C99.6383 30.312 99.8996 30.8347 100.348 31.24C100.796 31.6453 101.393 31.848 102.14 31.848C102.886 31.848 103.452 31.656 103.836 31.272C104.23 30.8773 104.428 30.3707 104.428 29.752C104.428 28.952 104.161 28.376 103.628 28.024C103.094 27.672 102.289 27.496 101.212 27.496H100.844V26.28H101.228C102.209 26.2693 102.95 26.1093 103.452 25.8C103.953 25.48 104.204 24.9893 104.204 24.328C104.204 23.7627 104.017 23.3093 103.644 22.968C103.281 22.6267 102.758 22.456 102.076 22.456C101.414 22.456 100.881 22.6267 100.476 22.968C100.07 23.3093 99.8303 23.768 99.7556 24.344H98.3316Z" fill="#000714"/>
<path d="M131.312 26.52V27.752H124.928V26.52H131.312Z" fill="#000714"/>
<path d="M152.864 29.896C152.971 30.504 153.216 30.9733 153.6 31.304C153.995 31.6347 154.523 31.8 155.184 31.8C156.069 31.8 156.72 31.4533 157.136 30.76C157.563 30.0667 157.765 28.8987 157.744 27.256C157.52 27.736 157.147 28.1147 156.624 28.392C156.101 28.6587 155.52 28.792 154.88 28.792C154.165 28.792 153.525 28.648 152.96 28.36C152.405 28.0613 151.968 27.6293 151.648 27.064C151.328 26.4987 151.168 25.816 151.168 25.016C151.168 23.8747 151.499 22.9573 152.16 22.264C152.821 21.56 153.76 21.208 154.976 21.208C156.469 21.208 157.515 21.6933 158.112 22.664C158.72 23.6347 159.024 25.08 159.024 27C159.024 28.344 158.901 29.4533 158.656 30.328C158.421 31.2027 158.016 31.8693 157.44 32.328C156.875 32.7867 156.096 33.016 155.104 33.016C154.016 33.016 153.168 32.7227 152.56 32.136C151.952 31.5493 151.605 30.8027 151.52 29.896H152.864ZM155.12 27.56C155.835 27.56 156.421 27.3413 156.88 26.904C157.339 26.456 157.568 25.8533 157.568 25.096C157.568 24.296 157.344 23.6507 156.896 23.16C156.448 22.6693 155.819 22.424 155.008 22.424C154.261 22.424 153.664 22.6587 153.216 23.128C152.779 23.5973 152.56 24.216 152.56 24.984C152.56 25.7627 152.779 26.3867 153.216 26.856C153.653 27.3253 154.288 27.56 155.12 27.56ZM163.134 26.984C162.537 26.7493 162.078 26.408 161.758 25.96C161.438 25.512 161.278 24.968 161.278 24.328C161.278 23.752 161.422 23.2347 161.71 22.776C161.998 22.3067 162.425 21.9387 162.99 21.672C163.566 21.3947 164.259 21.256 165.07 21.256C165.881 21.256 166.569 21.3947 167.134 21.672C167.71 21.9387 168.142 22.3067 168.43 22.776C168.729 23.2347 168.878 23.752 168.878 24.328C168.878 24.9467 168.713 25.4907 168.382 25.96C168.051 26.4187 167.598 26.76 167.022 26.984C167.683 27.1867 168.206 27.544 168.59 28.056C168.985 28.5573 169.182 29.1653 169.182 29.88C169.182 30.5733 169.011 31.1813 168.67 31.704C168.329 32.216 167.843 32.616 167.214 32.904C166.595 33.1813 165.881 33.32 165.07 33.32C164.259 33.32 163.545 33.1813 162.926 32.904C162.318 32.616 161.843 32.216 161.502 31.704C161.161 31.1813 160.99 30.5733 160.99 29.88C160.99 29.1653 161.182 28.552 161.566 28.04C161.95 27.528 162.473 27.176 163.134 26.984ZM167.47 24.504C167.47 23.8533 167.257 23.352 166.83 23C166.403 22.648 165.817 22.472 165.07 22.472C164.334 22.472 163.753 22.648 163.326 23C162.899 23.352 162.686 23.8587 162.686 24.52C162.686 25.1173 162.905 25.5973 163.342 25.96C163.79 26.3227 164.366 26.504 165.07 26.504C165.785 26.504 166.361 26.3227 166.798 25.96C167.246 25.5867 167.47 25.1013 167.47 24.504ZM165.07 27.624C164.281 27.624 163.635 27.8107 163.134 28.184C162.633 28.5467 162.382 29.096 162.382 29.832C162.382 30.5147 162.622 31.064 163.102 31.48C163.593 31.896 164.249 32.104 165.07 32.104C165.891 32.104 166.542 31.896 167.022 31.48C167.502 31.064 167.742 30.5147 167.742 29.832C167.742 29.1173 167.497 28.5733 167.006 28.2C166.515 27.816 165.87 27.624 165.07 27.624ZM170.684 22.76V21.432H173.692V33H172.22V22.76H170.684ZM183.265 22.568L178.817 33H177.345L181.857 22.712H175.681V21.464H183.265V22.568Z" fill="#000714"/>
<path d="M208.312 26.52V27.752H201.928V26.52H208.312Z" fill="#000714"/>
<path d="M227.608 22.76V21.432H230.616V33H229.144V22.76H227.608ZM233.037 24.344C233.112 23.3627 233.49 22.5947 234.173 22.04C234.856 21.4853 235.741 21.208 236.829 21.208C237.554 21.208 238.178 21.3413 238.701 21.608C239.234 21.864 239.634 22.216 239.901 22.664C240.178 23.112 240.317 23.6187 240.317 24.184C240.317 24.8453 240.125 25.416 239.741 25.896C239.368 26.376 238.877 26.6853 238.269 26.824V26.904C238.962 27.0747 239.512 27.4107 239.917 27.912C240.322 28.4133 240.525 29.0693 240.525 29.88C240.525 30.488 240.386 31.0373 240.109 31.528C239.832 32.008 239.416 32.3867 238.861 32.664C238.306 32.9413 237.64 33.08 236.861 33.08C235.73 33.08 234.802 32.7867 234.077 32.2C233.352 31.6027 232.946 30.76 232.861 29.672H234.269C234.344 30.312 234.605 30.8347 235.053 31.24C235.501 31.6453 236.098 31.848 236.845 31.848C237.592 31.848 238.157 31.656 238.541 31.272C238.936 30.8773 239.133 30.3707 239.133 29.752C239.133 28.952 238.866 28.376 238.333 28.024C237.8 27.672 236.994 27.496 235.917 27.496H235.549V26.28H235.933C236.914 26.2693 237.656 26.1093 238.157 25.8C238.658 25.48 238.909 24.9893 238.909 24.328C238.909 23.7627 238.722 23.3093 238.349 22.968C237.986 22.6267 237.464 22.456 236.781 22.456C236.12 22.456 235.586 22.6267 235.181 22.968C234.776 23.3093 234.536 23.768 234.461 24.344H233.037ZM242.411 24.344C242.486 23.3627 242.864 22.5947 243.547 22.04C244.23 21.4853 245.115 21.208 246.203 21.208C246.928 21.208 247.552 21.3413 248.075 21.608C248.608 21.864 249.008 22.216 249.275 22.664C249.552 23.112 249.691 23.6187 249.691 24.184C249.691 24.8453 249.499 25.416 249.115 25.896C248.742 26.376 248.251 26.6853 247.643 26.824V26.904C248.336 27.0747 248.886 27.4107 249.291 27.912C249.696 28.4133 249.899 29.0693 249.899 29.88C249.899 30.488 249.76 31.0373 249.483 31.528C249.206 32.008 248.79 32.3867 248.235 32.664C247.68 32.9413 247.014 33.08 246.235 33.08C245.104 33.08 244.176 32.7867 243.451 32.2C242.726 31.6027 242.32 30.76 242.235 29.672H243.643C243.718 30.312 243.979 30.8347 244.427 31.24C244.875 31.6453 245.472 31.848 246.219 31.848C246.966 31.848 247.531 31.656 247.915 31.272C248.31 30.8773 248.507 30.3707 248.507 29.752C248.507 28.952 248.24 28.376 247.707 28.024C247.174 27.672 246.368 27.496 245.291 27.496H244.923V26.28H245.307C246.288 26.2693 247.03 26.1093 247.531 25.8C248.032 25.48 248.283 24.9893 248.283 24.328C248.283 23.7627 248.096 23.3093 247.723 22.968C247.36 22.6267 246.838 22.456 246.155 22.456C245.494 22.456 244.96 22.6267 244.555 22.968C244.15 23.3093 243.91 23.768 243.835 24.344H242.411ZM251.785 24.344C251.859 23.3627 252.238 22.5947 252.921 22.04C253.603 21.4853 254.489 21.208 255.577 21.208C256.302 21.208 256.926 21.3413 257.449 21.608C257.982 21.864 258.382 22.216 258.649 22.664C258.926 23.112 259.065 23.6187 259.065 24.184C259.065 24.8453 258.873 25.416 258.489 25.896C258.115 26.376 257.625 26.6853 257.017 26.824V26.904C257.71 27.0747 258.259 27.4107 258.665 27.912C259.07 28.4133 259.273 29.0693 259.273 29.88C259.273 30.488 259.134 31.0373 258.857 31.528C258.579 32.008 258.163 32.3867 257.609 32.664C257.054 32.9413 256.387 33.08 255.609 33.08C254.478 33.08 253.55 32.7867 252.825 32.2C252.099 31.6027 251.694 30.76 251.609 29.672H253.017C253.091 30.312 253.353 30.8347 253.801 31.24C254.249 31.6453 254.846 31.848 255.593 31.848C256.339 31.848 256.905 31.656 257.289 31.272C257.683 30.8773 257.881 30.3707 257.881 29.752C257.881 28.952 257.614 28.376 257.081 28.024C256.547 27.672 255.742 27.496 254.665 27.496H254.297V26.28H254.681C255.662 26.2693 256.403 26.1093 256.905 25.8C257.406 25.48 257.657 24.9893 257.657 24.328C257.657 23.7627 257.47 23.3093 257.097 22.968C256.734 22.6267 256.211 22.456 255.529 22.456C254.867 22.456 254.334 22.6267 253.929 22.968C253.523 23.3093 253.283 23.768 253.209 24.344H251.785Z" fill="#000714"/>
<path d="M312.112 22.568L307.664 33H306.192L310.704 22.712H304.528V21.464H312.112V22.568ZM315.79 26.984C315.193 26.7493 314.734 26.408 314.414 25.96C314.094 25.512 313.934 24.968 313.934 24.328C313.934 23.752 314.078 23.2347 314.366 22.776C314.654 22.3067 315.081 21.9387 315.646 21.672C316.222 21.3947 316.916 21.256 317.726 21.256C318.537 21.256 319.225 21.3947 319.79 21.672C320.366 21.9387 320.798 22.3067 321.086 22.776C321.385 23.2347 321.534 23.752 321.534 24.328C321.534 24.9467 321.369 25.4907 321.038 25.96C320.708 26.4187 320.254 26.76 319.678 26.984C320.34 27.1867 320.862 27.544 321.246 28.056C321.641 28.5573 321.838 29.1653 321.838 29.88C321.838 30.5733 321.668 31.1813 321.326 31.704C320.985 32.216 320.5 32.616 319.87 32.904C319.252 33.1813 318.537 33.32 317.726 33.32C316.916 33.32 316.201 33.1813 315.582 32.904C314.974 32.616 314.5 32.216 314.158 31.704C313.817 31.1813 313.646 30.5733 313.646 29.88C313.646 29.1653 313.838 28.552 314.222 28.04C314.606 27.528 315.129 27.176 315.79 26.984ZM320.126 24.504C320.126 23.8533 319.913 23.352 319.486 23C319.06 22.648 318.473 22.472 317.726 22.472C316.99 22.472 316.409 22.648 315.982 23C315.556 23.352 315.342 23.8587 315.342 24.52C315.342 25.1173 315.561 25.5973 315.998 25.96C316.446 26.3227 317.022 26.504 317.726 26.504C318.441 26.504 319.017 26.3227 319.454 25.96C319.902 25.5867 320.126 25.1013 320.126 24.504ZM317.726 27.624C316.937 27.624 316.292 27.8107 315.79 28.184C315.289 28.5467 315.038 29.096 315.038 29.832C315.038 30.5147 315.278 31.064 315.758 31.48C316.249 31.896 316.905 32.104 317.726 32.104C318.548 32.104 319.198 31.896 319.678 31.48C320.158 31.064 320.398 30.5147 320.398 29.832C320.398 29.1173 320.153 28.5733 319.662 28.2C319.172 27.816 318.526 27.624 317.726 27.624ZM323.692 24.344C323.767 23.3627 324.145 22.5947 324.828 22.04C325.511 21.4853 326.396 21.208 327.484 21.208C328.209 21.208 328.833 21.3413 329.356 21.608C329.889 21.864 330.289 22.216 330.556 22.664C330.833 23.112 330.972 23.6187 330.972 24.184C330.972 24.8453 330.78 25.416 330.396 25.896C330.023 26.376 329.532 26.6853 328.924 26.824V26.904C329.617 27.0747 330.167 27.4107 330.572 27.912C330.977 28.4133 331.18 29.0693 331.18 29.88C331.18 30.488 331.041 31.0373 330.764 31.528C330.487 32.008 330.071 32.3867 329.516 32.664C328.961 32.9413 328.295 33.08 327.516 33.08C326.385 33.08 325.457 32.7867 324.732 32.2C324.007 31.6027 323.601 30.76 323.516 29.672H324.924C324.999 30.312 325.26 30.8347 325.708 31.24C326.156 31.6453 326.753 31.848 327.5 31.848C328.247 31.848 328.812 31.656 329.196 31.272C329.591 30.8773 329.788 30.3707 329.788 29.752C329.788 28.952 329.521 28.376 328.988 28.024C328.455 27.672 327.649 27.496 326.572 27.496H326.204V26.28H326.588C327.569 26.2693 328.311 26.1093 328.812 25.8C329.313 25.48 329.564 24.9893 329.564 24.328C329.564 23.7627 329.377 23.3093 329.004 22.968C328.641 22.6267 328.119 22.456 327.436 22.456C326.775 22.456 326.241 22.6267 325.836 22.968C325.431 23.3093 325.191 23.768 325.116 24.344H323.692ZM340.218 22.568L335.77 33H334.298L338.81 22.712H332.634V21.464H340.218V22.568Z" fill="#000714"/>
<path d="M285.312 26.52V27.752H278.928V26.52H285.312Z" fill="#000714"/>
<rect x="0.25" y="0.25" width="497.5" height="54.5" rx="4.75" stroke="#000714" stroke-opacity="0.29" stroke-width="0.5"/>
<path fill-rule="evenodd" clip-rule="evenodd" d="M13 42C12.2044 42 11.4413 41.6839 10.8787 41.1213C10.3161 40.5587 10 39.7956 10 39V17C10 16.2044 10.3161 15.4413 10.8787 14.8787C11.4413 14.3161 12.2044 14 13 14H47C47.7957 14 48.5587 14.3161 49.1213 14.8787C49.6839 15.4413 50 16.2044 50 17V39C50 39.7956 49.6839 40.5587 49.1213 41.1213C48.5587 41.6839 47.7957 42 47 42H13ZM12 17C12 16.7348 12.1054 16.4804 12.2929 16.2929C12.4804 16.1054 12.7348 16 13 16H47C47.2652 16 47.5196 16.1054 47.7071 16.2929C47.8946 16.4804 48 16.7348 48 17V20H12V17ZM13 40C12.7348 40 12.4804 39.8946 12.2929 39.7071C12.1054 39.5196 12 39.2652 12 39V28H48V39C48 39.2652 47.8946 39.5196 47.7071 39.7071C47.5196 39.8946 47.2652 40 47 40H13Z" fill="#000714" fill-opacity="0.3"/>
</svg>
