<svg width="20" height="19" viewBox="0 0 20 19" fill="none" xmlns="http://www.w3.org/2000/svg">
<path d="M9.99767 18V9.95388M9.99767 18L7.74632 16.212M9.99767 18L12.249 16.212M3.72451 6.48242C2.87279 6.69519 2.12864 7.2094 1.63188 7.92844C1.13512 8.64748 0.919941 9.52185 1.02677 10.3873C1.13359 11.2527 1.55507 12.0496 2.21202 12.6283C2.86897 13.207 3.71616 13.5276 4.59443 13.5299H5.49497" stroke="white" stroke-width="2" stroke-linecap="round" stroke-linejoin="round"/>
<path d="M13.4466 4.71315C13.1388 3.50317 12.3791 2.45464 11.3214 1.78012C10.2638 1.1056 8.98737 0.855557 7.75091 1.08068C6.51445 1.30581 5.41048 1.98925 4.66279 2.99247C3.91509 3.9957 3.57961 5.24363 3.72437 6.4833C3.72437 6.4833 3.86215 7.27182 4.14402 7.71883" stroke="white" stroke-width="2" stroke-linecap="round" stroke-linejoin="round"/>
<path d="M14.5004 13.53C15.1362 13.5296 15.7647 13.3955 16.3446 13.1365C16.9244 12.8775 17.4424 12.4996 17.8645 12.0276C18.2867 11.5555 18.6033 11.0001 18.7936 10.3978C18.9839 9.79556 19.0436 9.16011 18.9686 8.53329C18.8937 7.90648 18.686 7.30252 18.359 6.76117C18.032 6.21982 17.5933 5.75336 17.0716 5.39248C16.55 5.0316 15.9573 4.78449 15.3325 4.66741C14.7077 4.55033 14.065 4.56594 13.4467 4.71322L12.249 5.03685" stroke="white" stroke-width="2" stroke-linecap="round" stroke-linejoin="round"/>
</svg>
