<svg width="13" height="12" viewBox="0 0 13 12" fill="none" xmlns="http://www.w3.org/2000/svg">
<path d="M6.49858 11.3881V6.47106M6.49858 11.3881L5.12276 10.2955M6.49858 11.3881L7.87441 10.2955M2.66498 4.34961C2.14448 4.47963 1.68973 4.79387 1.38615 5.23329C1.08257 5.6727 0.951075 6.20704 1.01636 6.73592C1.08164 7.2648 1.33921 7.75181 1.74068 8.10545C2.14215 8.45909 2.65988 8.65502 3.1966 8.65643H3.74693" stroke="#000714" stroke-linecap="round" stroke-linejoin="round"/>
<path d="M8.60604 3.26915C8.41795 2.52971 7.95367 1.88895 7.30733 1.47674C6.66099 1.06453 5.88096 0.911729 5.12534 1.04931C4.36973 1.18688 3.69508 1.60454 3.23815 2.21762C2.78123 2.83071 2.57621 3.59333 2.66467 4.35091C2.66467 4.35091 2.74887 4.83278 2.92113 5.10596" stroke="#000714" stroke-linecap="round" stroke-linejoin="round"/>
<path d="M9.25083 8.65679C9.63938 8.65653 10.0235 8.57457 10.3778 8.41632C10.7322 8.25807 11.0488 8.02711 11.3067 7.73865C11.5647 7.45018 11.7582 7.11075 11.8745 6.74269C11.9908 6.37464 12.0272 5.9863 11.9814 5.60325C11.9357 5.2202 11.8087 4.85111 11.6089 4.52028C11.4091 4.18946 11.1409 3.9044 10.8221 3.68386C10.5034 3.46332 10.1411 3.31231 9.75933 3.24076C9.37752 3.16921 8.98477 3.17875 8.60694 3.26875L7.875 3.46653" stroke="#000714" stroke-linecap="round" stroke-linejoin="round"/>
</svg>
