<svg width="12" height="11" viewBox="0 0 12 11" fill="none" xmlns="http://www.w3.org/2000/svg">
<path fill-rule="evenodd" clip-rule="evenodd" d="M7.2 2.31579V1.15789H4.8V2.31579H7.2ZM1.2 3.47368V9.8421H10.8V3.47368H1.2ZM10.8 2.31579C11.466 2.31579 12 2.83105 12 3.47368V9.8421C12 10.4847 11.466 11 10.8 11H1.2C0.534 11 0 10.4847 0 9.8421L0.00599999 3.47368C0.00599999 2.83105 0.534 2.31579 1.2 2.31579H3.6V1.15789C3.6 0.515263 4.134 0 4.8 0H7.2C7.866 0 8.4 0.515263 8.4 1.15789V2.31579H10.8Z" fill="white"/>
</svg>
