<svg width="23" height="26" viewBox="0 0 23 26" fill="none" xmlns="http://www.w3.org/2000/svg">
<path d="M18.7602 1.96049C17.5563 0.588295 15.3801 0 12.596 0H4.51594C4.24048 1.01994e-05 3.97407 0.098283 3.76459 0.27715C3.55511 0.456017 3.4163 0.703746 3.37313 0.975797L0.00873068 22.3137C-0.0581426 22.7344 0.26767 23.1154 0.694139 23.1154H5.68251L6.9353 15.1692L6.89642 15.418C6.98567 14.8563 7.46605 14.442 8.03491 14.442H10.4054C15.0621 14.442 18.7085 12.5506 19.7736 7.07898C19.8052 6.91715 19.8326 6.75965 19.8563 6.60577C19.7218 6.53458 19.7218 6.53458 19.8563 6.60577C20.1735 4.58341 19.8541 3.20681 18.7602 1.96049Z" fill="#27346A"/>
<path d="M8.84404 5.87725C8.98042 5.81231 9.12957 5.77866 9.28062 5.77875H15.6153C16.3654 5.77875 17.0651 5.82757 17.7044 5.93047C17.8833 5.959 18.0613 5.99305 18.2381 6.03259C18.4887 6.08789 18.7364 6.15557 18.9803 6.23537C19.2946 6.34035 19.5873 6.4626 19.8564 6.60577C20.1734 4.58264 19.8541 3.20681 18.7602 1.96049C17.5556 0.588295 15.3801 0 12.596 0H4.51525C3.94631 0 3.4623 0.4142 3.37313 0.975797L0.00873115 22.3129C-0.0581421 22.7343 0.267671 23.1148 0.693448 23.1148H5.68251L8.28167 6.63238C8.30722 6.47037 8.37176 6.317 8.46972 6.18546C8.56769 6.05391 8.69614 5.94814 8.84404 5.87725Z" fill="#27346A"/>
<path d="M19.7733 7.07868C18.7082 12.5495 15.0619 14.4417 10.4051 14.4417H8.03393C7.46507 14.4417 6.98461 14.856 6.89622 15.4177L5.33766 25.2979C5.27942 25.6662 5.5642 25.9998 5.93675 25.9998H10.1418C10.3827 25.9998 10.6157 25.9138 10.7988 25.7573C10.9819 25.6008 11.1032 25.3841 11.1409 25.1462L11.1818 24.932L11.9744 19.909L12.0254 19.6314C12.0631 19.3935 12.1843 19.1768 12.3675 19.0204C12.5506 18.8639 12.7835 18.7779 13.0244 18.7778H13.6537C17.7272 18.7778 20.9168 17.1229 21.8489 12.3367C22.2379 10.3365 22.0366 8.66662 21.0074 7.49366C20.6953 7.13838 20.3076 6.84497 19.856 6.60547C19.8315 6.76012 19.805 6.91685 19.7733 7.07868Z" fill="#2790C3"/>
<path d="M18.7419 6.16196C18.5758 6.11347 18.4082 6.07053 18.2392 6.03323C18.0623 5.99433 17.8844 5.96051 17.7055 5.93179C17.0655 5.8282 16.3663 5.7793 15.6155 5.7793H9.28166C9.1305 5.77896 8.98123 5.8129 8.84508 5.87857C8.69702 5.94925 8.56841 6.05496 8.47041 6.18654C8.3724 6.31812 8.30794 6.4716 8.28262 6.63371L6.93634 15.1698L6.89746 15.4186C6.98602 14.857 7.4664 14.4427 8.03534 14.4427H10.4065C15.0633 14.4427 18.7095 12.5512 19.7746 7.07961C19.8063 6.91779 19.833 6.76097 19.8574 6.6064C19.5877 6.46402 19.2957 6.34098 18.9813 6.2367C18.902 6.2104 18.8222 6.18548 18.742 6.16196" fill="#1F264F"/>
</svg>
