<svg width="107" height="27" viewBox="0 0 107 27" fill="none" xmlns="http://www.w3.org/2000/svg">

<path d="M11.5225 24H7.88252C7.65445 24 7.43322 23.9221 7.25552 23.7792C7.07782 23.6362 6.95433 23.4368 6.90552 23.214L6.49852 21.33C5.95558 21.0921 5.44075 20.7946 4.96352 20.443L3.12652 21.028C2.90908 21.0973 2.67447 21.0902 2.46164 21.0078C2.24881 20.9254 2.07057 20.7727 1.95652 20.575L0.132521 17.424C0.0196664 17.2261 -0.0226964 16.9958 0.0123634 16.7708C0.0474233 16.5457 0.15783 16.3392 0.325521 16.185L1.75052 14.885C1.68572 14.2961 1.68572 13.7019 1.75052 13.113L0.325521 11.816C0.157592 11.6618 0.0470356 11.4551 0.01197 11.2298C-0.0230956 11.0045 0.0194104 10.774 0.132521 10.576L1.95252 7.423C2.06657 7.22532 2.24481 7.07259 2.45764 6.99019C2.67047 6.90778 2.90508 6.90066 3.12252 6.97L4.95952 7.555C5.20352 7.375 5.45752 7.207 5.71952 7.055C5.97252 6.913 6.23252 6.784 6.49852 6.669L6.90652 4.787C6.95509 4.5642 7.07835 4.36469 7.25587 4.22155C7.43338 4.07841 7.65449 4.00024 7.88252 4H11.5225C11.7506 4.00024 11.9717 4.07841 12.1492 4.22155C12.3267 4.36469 12.4499 4.5642 12.4985 4.787L12.9105 6.67C13.4531 6.9079 13.9676 7.20539 14.4445 7.557L16.2825 6.972C16.4998 6.90292 16.7342 6.91017 16.9468 6.99256C17.1594 7.07495 17.3375 7.22753 17.4515 7.425L19.2715 10.578C19.5035 10.985 19.4235 11.5 19.0785 11.817L17.6535 13.117C17.7183 13.7059 17.7183 14.3001 17.6535 14.889L19.0785 16.189C19.4235 16.507 19.5035 17.021 19.2715 17.428L17.4515 20.581C17.3375 20.7787 17.1592 20.9314 16.9464 21.0138C16.7336 21.0962 16.499 21.1033 16.2815 21.034L14.4445 20.449C13.9677 20.8003 13.4532 21.0975 12.9105 21.335L12.4985 23.214C12.4498 23.4366 12.3264 23.6359 12.1489 23.7788C11.9714 23.9218 11.7504 23.9998 11.5225 24ZM5.32252 18.229L6.14252 18.829C6.32752 18.965 6.51952 19.09 6.71952 19.204C6.90752 19.313 7.09952 19.411 7.29852 19.5L8.23152 19.909L8.68852 22H10.7185L11.1755 19.908L12.1085 19.499C12.5155 19.319 12.9025 19.096 13.2615 18.833L14.0815 18.233L16.1235 18.883L17.1385 17.125L15.5555 15.682L15.6675 14.67C15.7175 14.227 15.7175 13.78 15.6675 13.338L15.5555 12.326L17.1395 10.88L16.1235 9.121L14.0825 9.771L13.2615 9.171C12.9023 8.90669 12.5158 8.68173 12.1085 8.5L11.1755 8.091L10.7185 6H8.68852L8.22852 8.092L7.29852 8.5C6.89071 8.67861 6.504 8.90198 6.14552 9.166L5.32452 9.766L3.28452 9.116L2.26752 10.88L3.85052 12.321L3.73852 13.334C3.68852 13.777 3.68852 14.224 3.73852 14.666L3.85052 15.678L2.26752 17.121L3.28252 18.879L5.32252 18.229ZM9.69852 18C8.63766 18 7.62024 17.5786 6.87009 16.8284C6.11995 16.0783 5.69852 15.0609 5.69852 14C5.69852 12.9391 6.11995 11.9217 6.87009 11.1716C7.62024 10.4214 8.63766 10 9.69852 10C10.7594 10 11.7768 10.4214 12.5269 11.1716C13.2771 11.9217 13.6985 12.9391 13.6985 14C13.6985 15.0609 13.2771 16.0783 12.5269 16.8284C11.7768 17.5786 10.7594 18 9.69852 18ZM9.69852 12C9.30688 12.0004 8.92397 12.1158 8.5973 12.3318C8.27063 12.5479 8.01459 12.855 7.86092 13.2153C7.70726 13.5755 7.66274 13.9729 7.7329 14.3583C7.80305 14.7436 7.98479 15.0998 8.25556 15.3828C8.52634 15.6657 8.87423 15.863 9.25608 15.95C9.63793 16.037 10.0369 16.01 10.4036 15.8724C10.7702 15.7347 11.0884 15.4924 11.3186 15.1756C11.5488 14.8587 11.6809 14.4812 11.6985 14.09V14.49V14C11.6985 13.4696 11.4878 12.9609 11.1127 12.5858C10.7377 12.2107 10.229 12 9.69852 12Z" fill="white"/>
</svg>
